<svg width="580" height="400" xmlns="http://www.w3.org/2000/svg">
 <!-- Created with Method Draw - http://github.com/duopixel/Method-Draw/ -->
 <g>
  <title>background</title>
  <rect fill="none" id="canvas_background" height="402" width="582" y="-1" x="-1"/>
  <g display="none" overflow="visible" y="0" x="0" height="100%" width="100%" id="canvasGrid">
   <rect fill="url(#gridpattern)" stroke-width="0" y="0" x="0" height="100%" width="100%"/>
  </g>
 </g>
 <g>
  <title>Layer 1</title>
  <text font-style="normal" font-weight="bold" stroke="#000" transform="matrix(26.770801844043035,0,0,18.89990995487506,-4175.938508976135,-1877.1266230599692) " xml:space="preserve" text-anchor="start" font-family="Oswald, sans-serif" font-size="3" id="svg_4" y="104.00666" x="157.437391" stroke-opacity="null" stroke-width="0" fill="#ffffff">INETTR-2016</text>
  <path id="svg_5" d="m92.5,177.5c99,113 103,111 99,113c-4,2 -39,46 -39.5,45.5" opacity="0.5" stroke-opacity="null" stroke-width="0" stroke="#000" fill="none"/>
  <path id="svg_6" d="m-131.5,-171.5l-32.5,59.5" opacity="0.5" stroke-opacity="null" stroke-width="0" stroke="#000" fill="none"/>
  <text font-style="normal" font-weight="bold" stroke="#000" transform="matrix(26.770801844043035,0,0,18.89990995487506,-4175.938508976135,-1877.1266230599692) " xml:space="preserve" text-anchor="start" font-family="Oswald, sans-serif" font-size="3" id="svg_7" y="110.038435" x="157.437391" stroke-opacity="null" stroke-width="0" fill="#999999">INETTR-2016</text>
  <text font-style="normal" font-weight="bold" stroke="#000" transform="matrix(26.770801844043035,0,0,18.89990995487506,-4175.938508976135,-1877.1266230599692) " xml:space="preserve" text-anchor="start" font-family="Oswald, sans-serif" font-size="3" id="svg_8" y="116.07021" x="157.362683" stroke-opacity="null" stroke-width="0" fill="#000000">INETTR-2016</text>
  <path d="m78.5,92.5c2,-3 2.692551,-4.186005 4,-6c0.826904,-1.14727 2,-2 3,-3c1,-1 1.85273,-2.173096 3,-3c1.813995,-1.307449 1.693436,-2.458801 3,-3c0.923882,-0.382683 2,-2 3,-3c2,-2 2.418861,-3.418861 4,-5c1.581139,-1.581139 3.076118,-1.617317 4,-2c1.306564,-0.541199 2,-1 3,-1c1,0 1.946495,-0.459503 0,0c-4.352501,1.027489 -12.751389,7.663834 -20,10c-8.775063,2.828133 -16.11499,3.538994 -25,6c-6.09507,1.688232 -14.056866,2.426712 -27,4c-12.076633,1.467957 -20,3 -27,3c-4,0 -6,0 -9,0c-2,0 -2.963913,0.378212 -1,0c5.287997,-1.018372 11.938895,-4.298126 21,-6c12.92691,-2.427963 25.041992,-4.583641 37,-6c13.061646,-1.547081 27.890961,-4.558395 47,-8c19.903519,-3.584694 40.885056,-7.798061 59,-10c12.94313,-1.573284 25.950058,-3.419071 41,-5c12.967056,-1.362133 24,-3 29,-3c4,0 6.878555,-0.493458 10,-1c0.987091,-0.160183 1.985397,-0.295612 -1,0c-5.074203,0.502445 -9.876053,3.343151 -15,5c-7.846222,2.537106 -18.818436,6.540955 -33,11c-10.87677,3.41993 -24.096542,6.524361 -40,10c-24.168198,5.281868 -47.936195,11.276016 -69,16c-18.945873,4.248993 -36.231625,9.190689 -55,15c-14.201334,4.395691 -24.045099,7.848404 -31,10c-3.021016,0.934593 -4.292893,0.292892 -5,1c-0.707107,0.707108 -0.617316,1.076118 -1,2c-0.541196,1.306564 -1,4 -1,7c0,2 0,3 0,6c0,2 0.292893,4.292892 1,5c0.707107,0.707108 1.026751,0.770248 2,1c2.176251,0.513748 7.558746,2.917236 14,0c8.398367,-3.803604 15.783035,-10.406204 23,-14c6.817291,-3.394775 14.254059,-5.357239 20,-8c5.297497,-2.436501 6.693436,-3.458801 8,-4c0.923878,-0.382683 3.292892,-0.707108 4,0c0.707108,0.707108 1,2 1,5c0,3 -1.496227,8.907784 -2,13c-0.488731,3.970032 -1.493458,5.878555 -2,9c-0.160183,0.987091 -0.486256,1.823746 -1,4c-0.229752,0.973251 1.025826,1.320358 3,1c3.121445,-0.506546 5.878555,-2.493454 9,-3c1.974174,-0.320358 4.152245,-0.234634 6,-1c1.306564,-0.541199 2,-1 3,-1c1,0 1.031448,3.412079 -1,7c-2.090347,3.69194 -3.881905,5.072784 -7,10c-1.928062,3.046722 -5.81266,7.206802 -8,9c-2.788326,2.285873 -5,5 -7,7c-1,1 -2.458805,1.693436 -3,3c-0.382683,0.923874 -0.459507,-1.053497 0,-3c0.513744,-2.176254 2.824429,-2.097885 4,-4c1.051464,-1.701309 1.692547,-3.186005 3,-5c0.826904,-1.147263 1.292892,-2.707108 2,-2c0.707108,0.707108 -1.679466,2.571106 -4,7c-1.467632,2.801086 -4.234634,6.152237 -5,8c-1.082394,2.613129 -3.292892,3.292892 -4,4c-0.707108,0.707108 -0.693436,2.541199 -2,2c-0.923878,-0.38269 5.228851,-6.729614 10,-11c4.21508,-3.772675 6.746746,-5.371338 11,-8c1.902115,-1.175568 4.823746,-3.486252 7,-4c1.946495,-0.459503 3,-1 5,-2l1,-1l1,0" id="svg_9" stroke-opacity="null" stroke-width="0" stroke="#000" fill="none"/>
  <path d="m81.5,157.5c0,1 0,2 0,4c0,1 -1,1 -1,2c0,1 0,2 0,3c0,1 0,2 0,3c0,1 -1,1 -1,2l0,1" id="svg_10" stroke-opacity="null" stroke-width="0" stroke="#000" fill="none"/>
  <path d="m142.5,129.5c-2,0 -3,0 -3,1c0,1 4,4 6,7l4,3" id="svg_11" stroke-opacity="null" stroke-width="0" stroke="#000" fill="none"/>
  <path d="m63.5,121.5c1,0 2.097885,1.824432 4,3c1.701302,1.05146 4.186005,0.692551 6,2c2.29454,1.653809 6.920296,6.11351 14,11c5.934731,4.096222 12.512718,9.753647 23,16c7.684486,4.576965 17.215385,7.299713 28,11c12.296356,4.218979 23.133102,7.548828 34,11c11.155624,3.542877 23.381088,7.035858 32,11c5.297501,2.436508 10.881378,6.293503 18,9c5.911697,2.24762 11.934143,4.144287 14,5c2.92157,1.210144 5.053497,0.540497 7,1c2.176254,0.513748 2.823746,1.486252 5,2c2.919754,0.689255 4,0 5,0c1,0 2,0 2,1l1,0l1,0l1,0" id="svg_12" stroke-opacity="null" stroke-width="0" stroke="#000" fill="none"/>
  <polyline opacity="0" stroke-linecap="round" id="svg_13" points="502.5,70.5 502.5,70.5 " stroke-opacity="null" stroke-width="0" stroke="#000" fill="none"/>
 </g>
</svg>